<?xml version="1.0" encoding="UTF-8"?>
<svg version="1.1" xmlns="http://www.w3.org/2000/svg" width="440" height="440">
<path d="M0 0 C145.2 0 290.4 0 440 0 C440 145.2 440 290.4 440 440 C294.8 440 149.6 440 0 440 C0 294.8 0 149.6 0 0 Z " fill="#FEFDFE" transform="translate(0,0)"/>
<path d="M0 0 C0.94812844 -0.00638882 1.89625689 -0.01277764 2.87311649 -0.01936007 C6.05247685 -0.0346295 9.23059499 -0.0141352 12.40991211 0.00622559 C14.68822645 0.00272499 16.96653836 -0.00293288 19.24484253 -0.0105896 C25.43492927 -0.0248559 31.62457277 -0.00775754 37.81461716 0.01569557 C44.28786824 0.03577804 50.76110044 0.02992637 57.234375 0.02758789 C68.1057973 0.02764149 78.97702035 0.04729054 89.84838867 0.07946777 C101.0326778 0.11255888 112.21678595 0.12672603 123.40112305 0.1204834 C136.88040624 0.11299683 150.35956173 0.12036846 163.83883667 0.14213562 C168.98706169 0.15031742 174.1352468 0.15301773 179.28347778 0.15144348 C185.34425965 0.15056553 191.40482477 0.164757 197.46554947 0.19067001 C199.69199701 0.19784157 201.9184676 0.1999107 204.14492416 0.19655228 C207.18002304 0.19284689 210.2144861 0.20755273 213.24951172 0.22705078 C214.13423692 0.22172286 215.01896212 0.21639493 215.93049717 0.21090555 C221.10218938 0.2683743 224.78350536 0.78020946 228.62475586 4.62145996 C228.74007462 6.74716308 228.78446018 8.87673461 228.80175781 11.00549316 C228.80832901 11.67221039 228.81490021 12.33892761 228.82167053 13.02584839 C228.84144707 15.24131369 228.85307635 17.45671104 228.86303711 19.67224121 C228.86711264 20.42757833 228.87118816 21.18291546 228.87538719 21.96114159 C228.89626763 25.95980941 228.91056011 29.95844272 228.91992188 33.95715332 C228.93098396 38.09011131 228.96537522 42.2225305 229.00509357 46.35529804 C229.03122913 49.53031929 229.039611 52.70521168 229.04320335 55.88033104 C229.04807817 57.40378644 229.0597177 58.92723574 229.07824135 60.45058632 C229.10256709 62.5839065 229.10168075 64.71582701 229.09472656 66.84924316 C229.1005928 68.0631221 229.10645905 69.27700104 229.11250305 70.52766418 C228.62475586 73.62145996 228.62475586 73.62145996 227.18024731 75.78265572 C223.33912381 78.54653669 219.87324727 78.17846415 215.24914551 78.13612366 C214.28891527 78.14306919 213.32868503 78.15001471 212.3393569 78.15717071 C209.1132919 78.17550563 205.88795687 78.16515817 202.66186523 78.15490723 C200.35251818 78.16196235 198.04317576 78.17070565 195.73384094 78.18101501 C189.45500842 78.20356301 183.17642731 78.20055673 176.89756966 78.19169354 C171.66114185 78.1865927 166.42476166 78.19386879 161.18833876 78.20116562 C148.13225942 78.21915504 135.07632071 78.21273633 122.02024645 78.19499581 C110.67758269 78.18029638 99.33518377 78.19492975 87.99255413 78.22376598 C76.34872784 78.25314775 64.70503467 78.26362747 53.06117296 78.25458378 C46.52285706 78.24964512 39.98474712 78.25192116 33.44645691 78.27237129 C27.30024849 78.29067401 21.15453386 78.28483556 15.00835228 78.26017189 C12.74922624 78.25514709 10.49006293 78.25869669 8.23096657 78.27132034 C5.15352541 78.28715997 2.07772845 78.27238526 -0.99963379 78.24964905 C-1.89962679 78.26148478 -2.7996198 78.2733205 -3.72688532 78.28551489 C-9.75089735 78.19471168 -9.75089735 78.19471168 -12.92905331 75.27664852 C-14.72660531 71.97636518 -14.88870847 69.73549004 -14.90869141 65.98278809 C-14.91730698 65.33660019 -14.92592255 64.69041229 -14.93479919 64.02464294 C-14.95740128 61.90025148 -14.95073278 59.77718528 -14.94165039 57.65270996 C-14.94688829 56.16967377 -14.95316538 54.68664091 -14.96043396 53.20361328 C-14.97082716 50.1000599 -14.96629227 46.99696535 -14.95166016 43.89343262 C-14.93446527 39.92181996 -14.9579796 35.9516531 -14.99314976 31.98020172 C-15.01513902 28.91915351 -15.01367894 25.85845056 -15.00538445 22.79734802 C-15.0045659 21.33335279 -15.011411 19.86933197 -15.02615547 18.40541077 C-15.04363435 16.35608724 -15.02903888 14.30935252 -15.00634766 12.26013184 C-15.00538589 11.09606812 -15.00442413 9.93200439 -15.00343323 8.73266602 C-13.31048246 0.3480589 -7.22396808 -0.10221087 0 0 Z " fill="#FEFBFD" transform="translate(111.375244140625,197.3785400390625)"/>
<path d="M0 0 C1.26194331 -0.00853686 1.26194331 -0.00853686 2.54938042 -0.01724619 C3.92824939 -0.019016 3.92824939 -0.019016 5.33497429 -0.02082157 C6.31547245 -0.02590939 7.29597061 -0.03099721 8.30618083 -0.03623921 C11.60092332 -0.05197044 14.89564386 -0.06049056 18.19041252 -0.06893253 C20.54913281 -0.07847042 22.9078517 -0.08836156 25.26656914 -0.09858036 C32.35139191 -0.12726143 39.43622003 -0.14704672 46.52107984 -0.16397271 C48.52316544 -0.16877023 50.52525055 -0.17377374 52.52733564 -0.17877793 C64.96816411 -0.20975077 77.40899731 -0.23642726 89.84985352 -0.25319672 C92.73013759 -0.25714601 95.61042159 -0.26114903 98.49070549 -0.2652216 C99.56448506 -0.26673414 99.56448506 -0.26673414 100.65995716 -0.26827724 C112.25076844 -0.28527639 123.84136593 -0.32637895 135.43207289 -0.37724458 C147.34031782 -0.42907254 159.24845294 -0.4581457 171.15680969 -0.4653936 C177.83957582 -0.47004923 184.52203798 -0.48542611 191.20469856 -0.5251379 C197.49373683 -0.56201813 203.78217812 -0.57040877 210.07130432 -0.55713177 C212.37631367 -0.55718569 214.68134957 -0.56747159 216.98625946 -0.5888834 C239.47584339 -0.78659265 239.47584339 -0.78659265 246.77195549 6.1398077 C247.29111597 6.62609426 247.81027645 7.11238081 248.34516907 7.61340332 C253.46704766 13.1092731 255.14400254 19.07907272 255.17600822 26.38516903 C255.1863031 27.41599354 255.1863031 27.41599354 255.19680595 28.46764278 C255.21497225 30.71925715 255.21125025 32.97016765 255.20554924 35.22183895 C255.21011702 36.80213805 255.21542436 38.38243518 255.22143364 39.96272945 C255.2303456 43.26866397 255.22796488 46.5743567 255.21800041 49.88028622 C255.20653252 54.09326666 255.22669784 58.30540617 255.25591755 62.51827621 C255.27436874 65.78107058 255.27396914 69.04366692 255.26828003 72.30650043 C255.2681278 73.85846477 255.27409007 75.41044337 255.2865715 76.96235752 C255.35851997 87.37672329 254.91591529 96.81125042 247.70945549 105.0148077 C236.99474571 114.20075492 223.26881995 112.70962796 210.0178051 112.65738583 C207.7073097 112.66281157 205.39681776 112.66993676 203.08633232 112.67862606 C196.83435868 112.69680731 190.5826501 112.68981347 184.33067203 112.67710972 C177.77704025 112.66695639 171.2234306 112.67638176 164.6697979 112.68265438 C152.96296045 112.69118662 141.25623415 112.67798834 129.54941595 112.65761703 C118.95027787 112.63974384 108.35131504 112.64285629 97.7521801 112.66129208 C85.42050295 112.68273158 73.08893742 112.69064876 60.75724417 112.67884302 C54.23787865 112.67261683 47.71863368 112.67174864 41.19927597 112.68498898 C35.07024403 112.69656807 28.94154217 112.68848365 22.81254578 112.66541195 C20.56722498 112.66013616 18.32187627 112.66161919 16.0765667 112.67046261 C13.00399076 112.68144597 9.93246269 112.66762026 6.85995293 112.64774227 C5.97832086 112.65666516 5.09668879 112.66558805 4.1883406 112.67478132 C-2.92538039 112.58593743 -9.82956678 111.0483517 -15.34942776 106.32424879 C-24.21277944 97.17874267 -24.83637992 86.53106608 -24.75929451 74.4210577 C-24.76199606 72.9123068 -24.76588397 71.4035576 -24.77089119 69.89481258 C-24.77675519 66.74795449 -24.76832467 63.60155362 -24.74952888 60.45474911 C-24.72674051 56.44694517 -24.73988046 52.44021312 -24.76381874 48.43244839 C-24.77836149 45.3214698 -24.77363231 42.21073999 -24.76330757 39.09975338 C-24.7606636 37.62315903 -24.7638268 36.14654113 -24.77322578 34.66997433 C-24.82249317 24.75801445 -23.78648168 16.85872459 -18.47804451 8.3273077 C-13.13341934 3.13114434 -7.5106122 0.02975318 0 0 Z M-6.22804451 22.1398077 C-6.97215454 25.29829678 -6.97215454 25.29829678 -6.85914803 28.77847958 C-6.86630333 29.42466747 -6.87345863 30.07085537 -6.88083076 30.73662472 C-6.89766663 32.86133337 -6.87834994 34.98391633 -6.85695076 37.1085577 C-6.85777995 38.5915917 -6.86024124 40.0746256 -6.86425972 41.55765438 C-6.86711417 44.66133034 -6.8524526 47.76428323 -6.82496834 50.86783504 C-6.79088487 54.8393222 -6.79690639 58.80951691 -6.81563091 62.78106594 C-6.82621699 65.84212609 -6.81724875 68.90288727 -6.80224609 71.96391964 C-6.79707554 73.42788968 -6.79753241 74.8918911 -6.80379105 76.3558569 C-6.80926328 78.4049622 -6.78880955 80.45223913 -6.76149178 82.50113583 C-6.7552932 83.66519955 -6.74909462 84.82926327 -6.74270821 86.02860165 C-6.08576593 89.99989942 -5.20068445 91.41044161 -2.22804451 94.1398077 C0.8896997 94.89063803 3.95355026 94.810001 7.14756584 94.76799679 C8.5879112 94.77863837 8.5879112 94.77863837 10.05735445 94.78949493 C13.2835889 94.80713482 16.50862815 94.78893907 19.73484612 94.77091122 C22.04419314 94.77604772 24.35353626 94.78332696 26.66287041 94.79259396 C32.94177439 94.81115015 39.22025518 94.79814244 45.49914169 94.77850366 C52.06229353 94.76215082 58.62541786 94.77092536 65.18858147 94.77602291 C76.21139347 94.78146643 87.23404551 94.76475459 98.25681877 94.73673153 C109.60031489 94.70789345 120.94356948 94.7008102 132.28709221 94.71622372 C145.95326233 94.73476778 159.61925777 94.73305275 173.285429 94.71400928 C178.5070678 94.70712693 183.72861686 94.70818341 188.95025444 94.71555424 C195.09642551 94.72320109 201.24224757 94.71114289 207.38835907 94.68370533 C209.6474771 94.67680365 211.90662761 94.67674249 214.16574478 94.68392086 C217.24300441 94.69257398 220.3191767 94.67672914 223.39634514 94.6544714 C224.74633465 94.66683255 224.74633465 94.66683255 226.12359667 94.67944342 C231.0618779 94.62688712 231.0618779 94.62688712 235.3266058 92.30016232 C237.36077094 89.25970915 237.27316344 87.04126328 237.27366447 83.39932919 C237.27906746 82.73056759 237.28447044 82.06180599 237.29003716 81.37277889 C237.30251655 79.16836572 237.28604253 76.96526058 237.26804924 74.76090145 C237.26820423 73.22680753 237.26969322 71.69271322 237.27245903 70.15862179 C237.27384259 66.94652615 237.26129133 63.73487728 237.23850822 60.52286434 C237.21009926 56.40448152 237.21286772 52.28683958 237.22559834 48.16840172 C237.23255043 45.00195129 237.22477211 41.83567235 237.21234131 38.66924381 C237.20782389 37.15058773 237.20749255 35.63191326 237.21140671 34.1132555 C237.21431507 31.99208298 237.19783288 29.87193479 237.17600822 27.75089169 C237.16790375 25.94031528 237.16790375 25.94031528 237.15963554 24.09316158 C237.01324976 21.1647941 237.01324976 21.1647941 235.43420219 19.28911495 C231.24498438 16.39261445 226.50504014 16.98862833 221.63722038 16.98590755 C220.21759099 16.97933417 220.21759099 16.97933417 218.76928222 16.972628 C215.58413617 16.95922672 212.3990178 16.9530582 209.21385002 16.94693661 C206.93583361 16.93903686 204.65781845 16.93076799 202.37980461 16.92215633 C194.88813791 16.89592743 187.39646559 16.88063052 179.90476799 16.8663702 C177.32844222 16.86101139 174.75211648 16.85563389 172.17579079 16.85023785 C161.46302841 16.82861027 150.7502693 16.80972026 140.03749084 16.79861546 C137.25806105 16.79568576 134.47863129 16.79272409 131.69920158 16.78971004 C131.00838701 16.78896399 130.31757244 16.78821794 129.6058241 16.78744929 C118.40929125 16.77478935 107.21291697 16.74155651 96.01645829 16.69990821 C84.52297451 16.65750511 73.02959662 16.63433027 61.53603256 16.62869489 C55.08202852 16.6250347 48.62829348 16.61294171 42.17436409 16.58059216 C36.10536729 16.55060752 30.03680362 16.54416553 23.96774864 16.55597591 C21.7380506 16.55619743 19.50833302 16.54782795 17.27870369 16.53032207 C14.23882832 16.50774996 11.20053954 16.51587028 8.16065788 16.53180599 C7.27456844 16.5179239 6.38847901 16.50404182 5.47553837 16.48973906 C-0.10741251 16.5620483 -2.74229558 17.39723621 -6.22804451 22.1398077 Z " fill="#E20476" transform="translate(103.2280445098877,180.86019229888916)"/>
<path d="M0 0 C1.19544434 0.41064697 1.19544434 0.41064697 2.41503906 0.82958984 C33.34255514 11.70668995 55.20886475 31.96686202 69.72265625 61.1484375 C70.92859512 63.84059461 71.80069186 66.50356704 72.6875 69.3125 C74.73448379 74.61949501 78.12013496 76.36580124 82.92578125 79.10546875 C98.50343777 88.70542226 109.8795624 105.45129978 114.875 122.875 C119.51621376 142.49338207 117.42270154 163.40620803 106.87792969 180.85693359 C100.1044181 191.44779095 100.1044181 191.44779095 97 193 C96.73445313 191.87980469 96.46890625 190.75960937 96.1953125 189.60546875 C95.83885504 188.13273662 95.48206692 186.66008449 95.125 185.1875 C94.86396484 184.08051758 94.86396484 184.08051758 94.59765625 182.95117188 C93.75507489 179.50282963 92.98714425 176.98071638 91 174 C91.42927033 169.65363793 93.08466151 165.55006928 94.5 161.4375 C100.00639855 145.34308366 98.91679643 131.32259836 91.75 115.75 C85.51333563 104.23760746 76.1826751 94.4122971 63.625 90.0625 C60.05440339 88.41627899 58.72116185 86.83931921 57.36328125 83.2578125 C56.60410482 80.94590253 55.91838218 78.62107655 55.24536133 76.28271484 C49.40925301 56.12968267 35.08342761 38.318838 16.92773438 27.79931641 C12.37679191 25.33300593 7.72726225 23.10556796 3 21 C1.82179688 20.46761719 0.64359375 19.93523438 -0.5703125 19.38671875 C-21.1480842 11.0665491 -47.26074931 13.1106732 -67.44091797 21.39624023 C-84.6701329 28.96364365 -97.48963941 41.40832607 -109 56 C-112.12405205 55.45182732 -114.40447066 54.80921195 -117.3125 53.4375 C-125.12501622 50.44294919 -135.69407786 50.75913477 -143.5 53.5625 C-151.77205576 57.53197642 -157.73826241 63.94067447 -162 72 C-164.38236399 78.80675425 -164.58494495 85.8348391 -165 93 C-165.94359375 93.21914062 -166.8871875 93.43828125 -167.859375 93.6640625 C-183.73747489 97.5124798 -197.0600365 104.06906779 -206.69140625 117.84765625 C-214.51761402 130.7200159 -216.94902104 144.74760953 -213.70703125 159.46484375 C-211.86020556 166.76104805 -211.86020556 166.76104805 -208 173 C-208.38859359 176.49734228 -208.88596087 179.65788261 -210 183 C-210.22718496 185.56634861 -210.41608184 188.11678107 -210.5625 190.6875 C-210.60568359 191.38939453 -210.64886719 192.09128906 -210.69335938 192.81445312 C-210.7991736 194.54275206 -210.90006581 196.2713511 -211 198 C-217.91366252 195.69544583 -223.01226729 185.38028802 -226.3125 179.125 C-234.98997621 160.39228674 -235.69779644 140.06604941 -228.875 120.5625 C-220.89621068 100.96343903 -205.87982016 87.94361939 -186.8046875 79.59375 C-185 79 -185 79 -182 79 C-182 77.845 -182 76.69 -182 75.5 C-180.47267037 62.41450022 -171.9115618 51.07660225 -162 43 C-158.79830136 40.61745671 -155.60344547 38.71094892 -152 37 C-151.14535156 36.58878906 -150.29070312 36.17757812 -149.41015625 35.75390625 C-140.27360353 32.05059105 -126.82187122 30.79119929 -117.2734375 33.8828125 C-114.67177466 34.27644567 -114.67177466 34.27644567 -112.16015625 31.60546875 C-111.11658579 30.47622953 -110.08472863 29.33609442 -109.0625 28.1875 C-82.00762873 -0.27007411 -37.70681626 -13.22473504 0 0 Z " fill="#E20476" transform="translate(276,13)"/>
<path d="M0 0 C2.99188926 1.34400118 5.0797762 2.83096916 7.39160156 5.14868164 C8.0319635 5.78596695 8.67232544 6.42325226 9.33209229 7.07984924 C10.01140808 7.76635056 10.69072388 8.45285187 11.390625 9.16015625 C12.09523865 9.86522812 12.79985229 10.57029999 13.52581787 11.29673767 C15.01079705 12.78473359 16.49334937 14.27515487 17.97363281 15.76782227 C20.25010911 18.06260999 22.53454124 20.34923994 24.8203125 22.63476562 C26.26089064 24.08025696 27.70101096 25.52620473 29.140625 26.97265625 C29.82803772 27.66118179 30.51545044 28.34970734 31.22369385 29.05909729 C31.85144714 29.69323044 32.47920044 30.32736359 33.12597656 30.98071289 C33.96059418 31.8210482 33.96059418 31.8210482 34.81207275 32.67835999 C36 34 36 34 36 35 C25.77 35 15.54 35 5 35 C5.02320313 38.15304688 5.04640625 41.30609375 5.0703125 44.5546875 C5.085898 47.59944252 5.09804902 50.64419314 5.10986328 53.68896484 C5.11993751 55.8094277 5.13359733 57.92987661 5.15087891 60.05029297 C5.17506489 63.09345943 5.18646869 66.13644266 5.1953125 69.1796875 C5.20563507 70.13181122 5.21595764 71.08393494 5.22659302 72.06491089 C5.22681961 73.38605392 5.22681961 73.38605392 5.22705078 74.73388672 C5.231492 75.51110077 5.23593323 76.28831482 5.24050903 77.08908081 C5 79 5 79 3 81 C-1.55555556 80.44444444 -1.55555556 80.44444444 -3 79 C-3.0927833 77.61839885 -3.11747043 76.23211962 -3.11352539 74.84741211 C-3.11344986 73.96657455 -3.11337433 73.085737 -3.11329651 72.1782074 C-3.10555458 70.74227989 -3.10555458 70.74227989 -3.09765625 69.27734375 C-3.0962413 68.30213272 -3.09482635 67.32692169 -3.09336853 66.32215881 C-3.08775133 63.19390857 -3.07519593 60.06572877 -3.0625 56.9375 C-3.05748722 54.82226666 -3.05292393 52.70703219 -3.04882812 50.59179688 C-3.03862531 45.39448199 -3.01905331 40.19732025 -3 35 C-13.56 35 -24.12 35 -35 35 C-23.33333333 23.33333333 -11.66666667 11.66666667 0 0 Z " fill="#E20275" transform="translate(226,81)"/>
<path d="M0 0 C5.29112204 2.74731337 9.09375244 6.28125733 11 12 C11.14703064 14.43448818 11.22105339 16.8737477 11.25 19.3125 C11.27578125 20.60800781 11.3015625 21.90351563 11.328125 23.23828125 C10.75156642 29.84811358 7.84434654 33.65250952 3 38 C-0.79775841 39.89887921 -4.88434222 39.74393814 -9 39 C-13.39100914 36.36249616 -17.25013584 32.90131854 -19 28 C-20.34874635 13.36767038 -20.34874635 13.36767038 -17.3125 7.75 C-12.26501123 1.74758092 -7.9602846 -1.06929196 0 0 Z " fill="#E30E7B" transform="translate(81,338)"/>
<path d="M0 0 C4.80605586 1.66363472 8.71612758 4.35450632 11 9 C11.9230718 13.86418704 11.64795007 18.40604659 9.4375 22.875 C6.64248436 26.45835338 4.2792035 28.48969288 0 30 C-5.23420071 30.64279658 -8.57331558 29.85275218 -13 27 C-17.59795579 21.9049679 -18.45736097 18.59601527 -18.421875 11.8359375 C-17.75392119 7.34580352 -15.40518403 4.84179592 -12 2 C-7.93446456 -0.71035696 -4.76828227 -0.51526892 0 0 Z " fill="#E20576" transform="translate(306,221)"/>
<path d="M0 0 C3.78910115 3.69437362 5.15550203 6.55261151 5.25 11.75 C5.18697262 17.20974681 4.03368901 20.82104748 0.25 24.875 C-2.92072341 26.4603617 -5.50819347 26.25865234 -9 26 C-9.66 25.67 -10.32 25.34 -11 25 C-11.33 28.63 -11.66 32.26 -12 36 C-13.98 36 -15.96 36 -18 36 C-18 24.12 -18 12.24 -18 0 C-15.66666667 0 -13.33333333 0 -11 0 C-7.50312647 -1.74843676 -3.69450223 -0.97950326 0 0 Z " fill="#E3117D" transform="translate(116,351)"/>
<path d="M0 0 C1.65 0 3.3 0 5 0 C5 12.21 5 24.42 5 37 C2.66666667 37 0.33333333 37 -2 37 C-2.99 37.495 -2.99 37.495 -4 38 C-8.37079845 38.49480737 -10.28241221 38.55812383 -13.8125 35.8125 C-17.62850971 30.9062018 -18.53682167 27.22713135 -18 21 C-16.82163496 17.46490489 -15.75225175 14.83285015 -13.25 12.0625 C-10.04090002 10.54709168 -7.50028973 10.68179184 -4 11 C-3.01 11.66 -2.02 12.32 -1 13 C-0.67 8.71 -0.34 4.42 0 0 Z " fill="#E30A79" transform="translate(269,395)"/>
<path d="M0 0 C0.886875 0.37125 1.77375 0.7425 2.6875 1.125 C3.450625 1.41375 4.21375 1.7025 5 2 C5.99 1.34 6.98 0.68 8 0 C11.82655245 -0.58230146 13.45043274 -0.37386619 16.67578125 1.8203125 C20.11203356 6.52133666 19.54791887 10.65158156 19.3125 16.3125 C19.28994141 17.33923828 19.26738281 18.36597656 19.24414062 19.42382812 C19.18537575 21.9507179 19.10327849 24.47460255 19 27 C17.02 27 15.04 27 13 27 C12.67 20.07 12.34 13.14 12 6 C10.35 6 8.7 6 7 6 C5.41596476 7.58403524 5.78025065 9.2771638 5.68359375 11.47265625 C5.64169922 12.37177734 5.59980469 13.27089844 5.55664062 14.19726562 C5.51732422 15.14279297 5.47800781 16.08832031 5.4375 17.0625 C5.39431641 18.01189453 5.35113281 18.96128906 5.30664062 19.93945312 C5.20020724 22.29281353 5.09818992 24.64628354 5 27 C3.02 27 1.04 27 -1 27 C-1.33 20.07 -1.66 13.14 -2 6 C-3.65 6 -5.3 6 -7 6 C-8.58403524 7.58403524 -8.21974935 9.2771638 -8.31640625 11.47265625 C-8.35830078 12.37177734 -8.40019531 13.27089844 -8.44335938 14.19726562 C-8.50233398 15.61555664 -8.50233398 15.61555664 -8.5625 17.0625 C-8.62727539 18.4865918 -8.62727539 18.4865918 -8.69335938 19.93945312 C-8.79979276 22.29281353 -8.90181008 24.64628354 -9 27 C-10.98 27 -12.96 27 -15 27 C-15 18.42 -15 9.84 -15 1 C-13.35 1 -11.7 1 -10 1 C-9.67 1.66 -9.34 2.32 -9 3 C-8.62875 2.505 -8.2575 2.01 -7.875 1.5 C-5.17768919 -0.65784865 -3.37952311 -0.33795231 0 0 Z " fill="#E4147F" transform="translate(346,350)"/>
<path d="M0 0 C3.2777698 1.2978644 6.20003967 2.77215392 8.17578125 5.8046875 C9.77931515 10.07571143 9.53800465 14.52094926 9 19 C7.01031547 22.91075925 5.63466354 24.57689098 2 27 C-1.73476676 27.67581494 -5.41764389 27.80786958 -8.8515625 26.0546875 C-12.11040135 23.50219796 -14.04661403 21.00422109 -15 17 C-15.47696886 11.75334256 -14.86233294 8.44155111 -12 4 C-8.17832308 -0.0339923 -5.48929067 -0.75714354 0 0 Z " fill="#E3107C" transform="translate(317,350)"/>
<path d="M0 0 C3.71194997 1.64975554 5.85325399 3.56520639 8 7 C9.24283781 10.72851342 9.5280726 14.12746761 9 18 C6.77708378 22.36350222 4.54977416 25.09544338 0 27 C-4.33036043 27.37985618 -7.30435512 27.30884102 -11 25 C-14.44609075 20.56475358 -15.65305621 15.65720545 -15.39453125 10.11328125 C-14.76467149 6.739478 -13.19747436 4.57418425 -11 2 C-7.29017554 -0.4732163 -4.30111858 -0.54710902 0 0 Z " fill="#E3107C" transform="translate(211,406)"/>
<path d="M0 0 C3.35452391 2.23634927 4.92936948 4.32602325 6.8125 7.875 C6.8125 9.195 6.8125 10.515 6.8125 11.875 C4.8325 11.875 2.8525 11.875 0.8125 11.875 C0.338125 10.905625 -0.13625 9.93625 -0.625 8.9375 C-1.88943947 6.07022563 -1.88943947 6.07022563 -3.1875 4.875 C-6.84870928 4.46819897 -8.5493744 4.3748475 -11.5 6.6875 C-15.48681334 11.85559136 -14.76219522 18.65784257 -14.1875 24.875 C-13.1480242 27.67568371 -11.98753649 29.45620097 -10.1875 31.875 C-6.77093976 32.04177282 -6.77093976 32.04177282 -3.1875 31.875 C-0.5019406 29.1894406 -0.12700026 26.49878672 0.8125 22.875 C2.7925 22.875 4.7725 22.875 6.8125 22.875 C6.44575183 30.08771394 6.44575183 30.08771394 3.5 33.75 C-0.88346326 37.21599421 -3.45276852 38.31013482 -9.23046875 38.1171875 C-12.26398148 37.74178273 -13.87204461 36.86886436 -16.1875 34.875 C-21.53748268 27.22958556 -21.93759666 19.97891283 -21.1875 10.875 C-19.73576424 6.37687573 -16.78782318 2.89462589 -13.1875 -0.125 C-8.49815463 -1.68811512 -4.66994475 -1.64821579 0 0 Z " fill="#E30C7A" transform="translate(173.1875,395.125)"/>
<path d="M0 0 C7.17450425 0.22776204 7.17450425 0.22776204 9.9375 2.8125 C12.78087982 8.66651729 13.04447088 15.93736842 11.43359375 22.203125 C10.08169159 25.57226337 9.06565215 26.9562319 6 29 C3.0625 29.375 3.0625 29.375 0 29 C-2.92873536 26.72209472 -4.61776894 24.41422885 -6 21 C-7.32029307 9.11736234 -7.32029307 9.11736234 -4.125 4.3125 C-2.77903748 2.84777608 -1.40659718 1.40659718 0 0 Z " fill="#FEF8FB" transform="translate(74,343)"/>
<path d="M0 0 C3.62342508 1.6470114 6.16816086 3.4327343 8 7 C8 9.64 8 12.28 8 15 C2.72 15 -2.56 15 -8 15 C-7.34 17.31 -6.68 19.62 -6 22 C-3.64828869 21.40138258 -1.3140622 20.73075648 1 20 C1.33 19.34 1.66 18.68 2 18 C3.98 18 5.96 18 8 18 C6.64995627 22.41832494 5.00638894 24.64842388 1 27 C-3.28608133 27.85895152 -6.12643582 27.53173472 -9.875 25.25 C-14.17789494 20.6939936 -14.43014702 16.80231694 -14.32421875 10.69921875 C-13.87385154 6.94977611 -12.49880251 4.78437994 -10 2 C-6.27420911 -0.48386059 -4.41288598 -0.3804212 0 0 Z " fill="#E4137E" transform="translate(266,350)"/>
<path d="M0 0 C2.87305972 1.40460697 4.74510999 2.74510999 7 5 C7.57730175 8.32220821 7.74099012 11.63287151 8 15 C2.72 15 -2.56 15 -8 15 C-7.34 17.31 -6.68 19.62 -6 22 C-3.64828869 21.40138258 -1.3140622 20.73075648 1 20 C1.33 19.34 1.66 18.68 2 18 C3.98 18 5.96 18 8 18 C6.64995627 22.41832494 5.00638894 24.64842388 1 27 C-3.25490487 27.85270361 -6.12136605 27.51571993 -9.875 25.3125 C-14.01627476 20.80581865 -14.49260839 16.4765922 -14.39453125 10.51171875 C-13.7358513 6.31834046 -11.802838 4.13650919 -9 1 C-5.93570224 -0.53214888 -3.3834358 -0.22938548 0 0 Z " fill="#E4127D" transform="translate(139,350)"/>
<path d="M0 0 C5.33570345 4.55758003 5.07157982 6.57263852 6 14 C0.39 14 -5.22 14 -11 14 C-10.01 15.98 -9.02 17.96 -8 20 C-5.08365871 20.2502157 -5.08365871 20.2502157 -2 20 C-1.34 19.01 -0.68 18.02 0 17 C2.625 16.8125 2.625 16.8125 5 17 C4.4568634 20.80195622 2.84334437 22.50130343 0 25 C-3.27126421 26.63563211 -6.4934292 26.81971785 -10 26 C-13.3583419 23.25291947 -16.69785018 19.4766379 -17.23828125 15.046875 C-17.45457003 8.35330634 -15.72602949 5.12988571 -11.3125 0.0625 C-7.48326021 -1.69688044 -3.96404843 -1.25775512 0 0 Z " fill="#E4127E" transform="translate(230,351)"/>
<path d="M0 0 C1.98 0 3.96 0 6 0 C6 6.6 6 13.2 6 20 C6.66 20 7.32 20 8 20 C8.2475 19.4225 8.495 18.845 8.75 18.25 C10.23824784 15.57115389 11.57263634 13.88794951 14 12 C17.25 11.75 17.25 11.75 20 12 C19.566875 12.54269531 19.13375 13.08539063 18.6875 13.64453125 C18.130625 14.35996094 17.57375 15.07539063 17 15.8125 C16.443125 16.52019531 15.88625 17.22789062 15.3125 17.95703125 C13.72974317 20.01595999 13.72974317 20.01595999 14 23 C15.10510004 25.05514778 16.28137709 27.07256616 17.5 29.0625 C21 34.79166667 21 34.79166667 21 37 C18.375 37.625 18.375 37.625 15 37 C13.13700883 34.50726533 11.72458484 31.95080937 10.296875 29.1875 C9.65492188 28.1046875 9.65492188 28.1046875 9 27 C8.34 27 7.68 27 7 27 C6.67 30.63 6.34 34.26 6 38 C4.02 38 2.04 38 0 38 C0 25.46 0 12.92 0 0 Z " fill="#E4157F" transform="translate(279,339)"/>
<path d="M0 0 C2.6796875 1.28515625 2.6796875 1.28515625 5 4 C5.63264459 7.92903555 5.46875573 11.7835085 5.3125 15.75 C5.28994141 16.82894531 5.26738281 17.90789062 5.24414062 19.01953125 C5.1852565 21.6810935 5.10307001 24.33984228 5 27 C3.02 27 1.04 27 -1 27 C-1.33 20.07 -1.66 13.14 -2 6 C-3.65 6 -5.3 6 -7 6 C-9.35358251 8.35358251 -9.27871904 8.92968394 -9.4140625 12.1328125 C-9.45273438 12.93847656 -9.49140625 13.74414062 -9.53125 14.57421875 C-9.5621875 15.41597656 -9.593125 16.25773437 -9.625 17.125 C-9.66367188 17.97449219 -9.70234375 18.82398438 -9.7421875 19.69921875 C-9.83656494 21.79911684 -9.91937586 23.89952891 -10 26 C-11.65 26 -13.3 26 -15 26 C-15 17.75 -15 9.5 -15 1 C-12.66666667 1 -10.33333333 1 -8 1 C-5.14675563 -0.42662219 -3.16545451 -0.31033868 0 0 Z " fill="#E30D7B" transform="translate(168,350)"/>
<path d="M0 0 C8.25 0 16.5 0 25 0 C25 1.32 25 2.64 25 4 C22.03 4 19.06 4 16 4 C16 15.22 16 26.44 16 38 C14.02 38 12.04 38 10 38 C10 26.78 10 15.56 10 4 C6.7 4 3.4 4 0 4 C0 2.68 0 1.36 0 0 Z " fill="#E20878" transform="translate(188,339)"/>
<path d="M0 0 C1.65 0 3.3 0 5 0 C5.02505615 0.57032959 5.0501123 1.14065918 5.07592773 1.72827148 C5.19156549 4.29826157 5.31443624 6.86785527 5.4375 9.4375 C5.47681641 10.33533203 5.51613281 11.23316406 5.55664062 12.15820312 C5.59853516 13.01220703 5.64042969 13.86621094 5.68359375 14.74609375 C5.72025146 15.53685303 5.75690918 16.3276123 5.79467773 17.14233398 C5.80563257 19.01401441 5.80563257 19.01401441 7 20 C8.66617115 20.04063832 10.33388095 20.042721 12 20 C14.47045803 16.18384532 14.43831912 12.15255752 14.625 7.75 C14.68300781 6.63238281 14.68300781 6.63238281 14.7421875 5.4921875 C14.83605108 3.6618476 14.91909718 1.83095857 15 0 C16.65 0 18.3 0 20 0 C20 8.25 20 16.5 20 25 C18.35 25 16.7 25 15 25 C15 24.34 15 23.68 15 23 C14.29875 23.495 13.5975 23.99 12.875 24.5 C9.52678113 26.2468968 7.7241837 26.55466566 4 26 C1.83203125 24.67578125 1.83203125 24.67578125 0 22 C-0.50099894 18.2403965 -0.37485829 14.53416651 -0.25 10.75 C-0.23195312 9.71875 -0.21390625 8.6875 -0.1953125 7.625 C-0.14822712 5.08238936 -0.0824805 2.54166838 0 0 Z " fill="#E20576" transform="translate(226,407)"/>
<path d="M0 0 C1.98 0 3.96 0 6 0 C6 12.54 6 25.08 6 38 C4.02 38 2.04 38 0 38 C0 25.46 0 12.92 0 0 Z " fill="#E41881" transform="translate(185,395)"/>
<path d="M0 0 C1.98 0 3.96 0 6 0 C6 12.54 6 25.08 6 38 C4.02 38 2.04 38 0 38 C0 25.46 0 12.92 0 0 Z " fill="#E41680" transform="translate(241,339)"/>
<path d="M0 0 C3.33694024 0.48663712 4.02982701 0.81060269 6 3.4375 C6.3984375 5.77734375 6.3984375 5.77734375 6.375 8.375 C6.38273437 9.22964844 6.39046875 10.08429688 6.3984375 10.96484375 C5.92240377 13.91905306 5.07345678 15.30076872 3 17.4375 C0 17.9375 0 17.9375 -3 17.4375 C-5.35101344 15.63505636 -5.89686881 14.21814581 -6.28125 11.30859375 C-6.4206966 7.78175691 -6.30326835 5.12827791 -4.875 1.875 C-3 0.4375 -3 0.4375 0 0 Z " fill="#FDF2F8" transform="translate(314,354.5625)"/>
<path d="M0 0 C2.35101344 1.80244364 2.89686881 3.21935419 3.28125 6.12890625 C3.4206966 9.65574309 3.30326835 12.30922209 1.875 15.5625 C0 17 0 17 -3 17.5 C-6 17 -6 17 -7.6640625 15.28515625 C-9.22478769 12.61549474 -9.40280272 11.0097008 -9.375 7.9375 C-9.38273438 7.08027344 -9.39046875 6.22304688 -9.3984375 5.33984375 C-8.48089242 -0.04848471 -4.96447458 -0.72398588 0 0 Z " fill="#FDF2F8" transform="translate(211,411)"/>
<path d="M0 0 C3 0.5 3 0.5 4.875 2 C6.80268135 6.28373633 6.47904041 10.42415824 5.4375 14.9375 C3.09150686 17.48749255 0.31661719 17.25432465 -3 17.5 C-6.37318554 13.00241928 -6.51804578 9.93948065 -6 4.5 C-4.45702531 1.07116735 -3.72541072 0.62090179 0 0 Z " fill="#FDF2F8" transform="translate(263,410.5)"/>
<path d="M0 0 C2.24117298 1.66747559 2.92471981 2.5579134 3.3984375 5.33984375 C3.39070313 6.19707031 3.38296875 7.05429687 3.375 7.9375 C3.38273437 8.79214844 3.39046875 9.64679688 3.3984375 10.52734375 C2.92435822 13.469424 2.04503446 14.857117 0 17 C-2.5 17.4375 -2.5 17.4375 -5 17 C-6.6328125 15.81640625 -6.6328125 15.81640625 -8 14 C-8.3984375 11.40625 -8.3984375 11.40625 -8.375 8.5 C-8.38273437 7.5409375 -8.39046875 6.581875 -8.3984375 5.59375 C-8 3 -8 3 -6.6328125 1.1796875 C-4.29810175 -0.50711309 -2.81130921 -0.42169638 0 0 Z " fill="#FEF8FB" transform="translate(112,355)"/>
<path d="M0 0 C2.54685809 0.0785782 3.81954973 0.17584047 6.0625 1.4375 C7.566606 4.25769875 7.51162849 6.16860056 7.0625 9.3125 C5.4375 11.6875 5.4375 11.6875 3.0625 13.3125 C0.0625 13.875 0.0625 13.875 -2.9375 13.3125 C-5.375 11.1875 -5.375 11.1875 -6.9375 8.3125 C-6.71631481 2.67227755 -5.90101777 0.46833474 0 0 Z " fill="#E30C7B" transform="translate(160.9375,242.6875)"/>
<path d="M0 0 C4.42171053 1.41118421 4.42171053 1.41118421 5.9375 3.9375 C6.375 7.4375 6.375 7.4375 5.9375 10.9375 C3.70429398 13.60016871 2.3174883 13.89097082 -1.125 14.3125 C-4.0625 13.9375 -4.0625 13.9375 -5.9375 12.875 C-7.73080867 9.78652396 -7.49091969 7.42606031 -7.0625 3.9375 C-4.8988567 0.608818 -4.00217367 -0.08167701 0 0 Z " fill="#E30B7A" transform="translate(134.0625,242.0625)"/>
<path d="M0 0 C2.7912125 1.98322993 3.82597224 3.12986121 4.5 6.5 C3.81895125 9.90524375 2.8520847 11.02547983 0 13 C-3.5625 13.5 -3.5625 13.5 -7 13 C-9 11.4375 -9 11.4375 -10 9 C-9.875 5.375 -9.875 5.375 -9 2 C-5.50875983 -0.32749345 -4.10777749 -0.50299316 0 0 Z " fill="#E30C7A" transform="translate(192,218)"/>
<path d="M0 0 C2.0625 1.625 2.0625 1.625 3 4 C2.87177883 7.14141856 2.4995896 9.21117432 0.8125 11.875 C-1.94344924 13.58558918 -3.82625484 13.45339217 -7 13 C-9.375 11.375 -9.375 11.375 -11 9 C-11.44912849 5.85610056 -11.504106 3.94519875 -10 1.125 C-6.7780545 -0.68734434 -3.5961431 -0.66539862 0 0 Z " fill="#E30B7A" transform="translate(193,243)"/>
<path d="M0 0 C2.4375 1.5625 2.4375 1.5625 4 4 C3.78571429 10.21428571 3.78571429 10.21428571 1 13 C-1.93188861 13.27922749 -4.15390647 13.47143881 -7 13 C-9.45636081 10.92744557 -9.88864581 9.63630966 -10.4375 6.5 C-9.41545969 0.65976965 -5.50319355 -0.91719892 0 0 Z " fill="#E30B7A" transform="translate(164,218)"/>
<path d="M0 0 C1.9375 1.0625 1.9375 1.0625 3 3 C3.36528977 6.4093712 3.6140629 8.88023824 1.9375 11.9375 C-1.11976176 13.6140629 -3.5906288 13.36528977 -7 13 C-8.9375 11.9375 -8.9375 11.9375 -10 10 C-10.36528977 6.5906288 -10.6140629 4.11976176 -8.9375 1.0625 C-5.88023824 -0.6140629 -3.4093712 -0.36528977 0 0 Z " fill="#E20778" transform="translate(137,218)"/>
<path d="M0 0 C1.9375 1.0625 1.9375 1.0625 3 3 C3.36528977 6.4093712 3.6140629 8.88023824 1.9375 11.9375 C-1.15493758 13.63335287 -3.55514741 13.43060657 -7 13 C-9.66266871 10.76679398 -9.95347082 9.3799883 -10.375 5.9375 C-10 3 -10 3 -8.9375 1.125 C-5.8930714 -0.64273274 -3.4368988 -0.36823916 0 0 Z " fill="#E20778" transform="translate(220,243)"/>
<path d="M0 0 C1.9375 1.0625 1.9375 1.0625 3 3 C3.36528977 6.4093712 3.6140629 8.88023824 1.9375 11.9375 C-1.15493758 13.63335287 -3.55514741 13.43060657 -7 13 C-9.66266871 10.76679398 -9.95347082 9.3799883 -10.375 5.9375 C-10 3 -10 3 -8.9375 1.125 C-5.8930714 -0.64273274 -3.4368988 -0.36823916 0 0 Z " fill="#E20778" transform="translate(220,218)"/>
<path d="M0 0 C3.125 0.3125 3.125 0.3125 5 2.1875 C6.125 4.3125 6.125 4.3125 6.125 6.3125 C2.495 6.3125 -1.135 6.3125 -4.875 6.3125 C-3.69277778 0.40138889 -3.69277778 0.40138889 0 0 Z " fill="#FADBEB" transform="translate(262.875,354.6875)"/>
<path d="M0 0 C3.125 0.3125 3.125 0.3125 5 2.1875 C6.125 4.3125 6.125 4.3125 6.125 6.3125 C2.495 6.3125 -1.135 6.3125 -4.875 6.3125 C-3.69277778 0.40138889 -3.69277778 0.40138889 0 0 Z " fill="#FADBEB" transform="translate(135.875,354.6875)"/>
<path d="M0 0 C2.5625 0.3125 2.5625 0.3125 4.375 1.625 C5.5625 3.3125 5.5625 3.3125 5.5625 6.3125 C1.9325 6.3125 -1.6975 6.3125 -5.4375 6.3125 C-3.98716887 0.5111755 -3.98716887 0.5111755 0 0 Z " fill="#FBDFED" transform="translate(224.4375,354.6875)"/>
<path d="M0 0 C0.66 0.33 1.32 0.66 2 1 C-0.97 3.97 -3.94 6.94 -7 10 C-7 7 -7 7 -4.625 4.4375 C-3.75875 3.633125 -2.8925 2.82875 -2 2 C-1.34 1.34 -0.68 0.68 0 0 Z " fill="#E62889" transform="translate(91,184)"/>
</svg>
